<?xml version="1.0" standalone="no"?>
<!DOCTYPE svg PUBLIC "-//W3C//DTD SVG 20010904//EN"
 "http://www.w3.org/TR/2001/REC-SVG-20010904/DTD/svg10.dtd">
<svg version="1.0" xmlns="http://www.w3.org/2000/svg"
 width="300.000000pt" height="172.000000pt" viewBox="0 0 300.000000 172.000000"
 preserveAspectRatio="xMidYMid meet">
<metadata>
Created by potrace 1.10, written by Peter Selinger 2001-2011
</metadata>
<g transform="translate(0.000000,172.000000) scale(0.100000,-0.100000)"
fill="#000000" stroke="none">
<path d="M835 1507 c-72 -29 -90 -59 -64 -109 33 -61 -11 -430 -67 -568 -73
-180 -155 -259 -217 -210 -41 33 -64 97 -87 244 -26 165 -25 364 4 428 18 41
21 84 7 93 -12 7 -148 -30 -167 -46 -16 -13 -19 -45 -4 -54 21 -13 29 -89 34
-307 4 -220 5 -229 32 -288 63 -140 204 -201 302 -131 56 41 106 110 157 216
63 134 64 156 0 30 -112 -221 -204 -294 -308 -246 -57 26 -100 68 -132 130
-31 62 -33 82 -39 354 -4 173 -8 212 -22 236 -27 46 -12 58 110 85 27 7 28 6
23 -26 -3 -18 -13 -62 -21 -98 -15 -60 -16 -253 -3 -315 3 -11 8 -40 12 -65
20 -129 21 -134 49 -196 29 -63 57 -80 112 -69 58 10 116 88 173 228 13 33 51
182 56 217 1 14 4 25 5 25 5 0 10 53 16 168 5 102 3 135 -9 166 -14 33 -14 41
-1 59 21 31 77 46 117 33 29 -10 33 -15 32 -44 -1 -17 -9 -57 -18 -87 -9 -30
-18 -68 -21 -85 -15 -82 -27 -136 -46 -200 -36 -119 -36 -112 2 -131 21 -10
39 -28 46 -47 l12 -31 28 27 c15 15 31 27 35 27 17 0 5 -59 -18 -90 -14 -19
-25 -42 -25 -51 0 -10 -4 -20 -9 -24 -6 -3 -6 -16 0 -33 8 -25 15 -28 60 -30
31 -1 48 2 44 8 -3 5 -26 10 -51 10 -58 0 -57 23 4 123 29 48 27 101 -4 105
-14 2 -27 -6 -39 -25 l-19 -28 -6 25 c-5 21 -28 40 -64 53 -5 2 5 60 22 130
18 70 46 182 63 250 16 67 27 129 24 138 -5 14 -60 40 -81 38 -5 0 -22 -6 -39
-12z"/>
<path d="M1745 1154 c-220 -39 -467 -241 -507 -414 -14 -60 -39 -72 -87 -44
-28 17 -30 20 -16 40 8 12 17 44 21 72 5 39 2 57 -12 81 -17 29 -23 32 -64 29
-37 -3 -45 -7 -51 -28 -12 -43 -9 -154 5 -179 11 -20 12 -13 8 57 -6 102 1
128 33 134 36 7 54 -11 59 -57 2 -22 1 -33 -1 -24 -7 27 -38 50 -58 43 -13 -6
-16 -14 -11 -42 7 -47 29 -70 50 -52 19 15 20 11 6 -26 -9 -22 -7 -31 7 -47
24 -26 54 -37 75 -26 13 7 15 5 11 -10 -2 -10 0 -53 6 -96 13 -93 57 -173 129
-235 64 -55 119 -80 219 -100 82 -16 85 -16 136 4 43 18 57 30 84 75 58 98 79
285 52 480 -21 156 -21 155 -65 148 -19 -3 -47 -2 -60 4 -34 12 -111 -8 -129
-34 -20 -29 -20 -140 0 -160 8 -9 29 -18 46 -22 38 -9 72 13 109 69 l25 38 7
-29 c10 -43 16 -224 7 -258 -4 -16 -10 -46 -13 -66 -14 -82 -108 -179 -172
-179 -43 0 -108 30 -169 77 -115 89 -161 276 -96 389 49 83 162 210 216 243
147 89 236 131 293 138 29 3 52 10 52 14 0 12 -51 10 -145 -7z m-90 -54 c-3
-5 -10 -10 -15 -10 -5 0 -36 -18 -69 -40 -33 -22 -63 -40 -66 -40 -10 0 -71
-69 -107 -120 -18 -25 -46 -64 -64 -87 -43 -57 -66 -161 -50 -228 18 -73 65
-158 109 -197 67 -60 170 -103 223 -94 79 15 152 110 177 231 14 68 14 225 0
248 -3 6 -1 7 5 3 7 -4 12 -2 12 3 0 6 -4 11 -10 11 -5 0 -10 11 -10 24 0 13
-6 29 -14 35 -11 9 -21 2 -52 -38 -43 -55 -72 -70 -110 -52 -22 10 -24 16 -24
75 0 54 3 67 19 76 30 15 33 12 15 -14 -33 -52 2 -102 52 -76 36 19 66 68 54
89 -6 13 -1 16 31 19 34 2 39 -1 45 -23 3 -14 4 -40 2 -59 -2 -19 -1 -33 3
-30 3 2 9 -13 13 -34 8 -53 7 -262 -1 -262 -5 0 -9 -26 -9 -58 -2 -61 -34
-141 -71 -174 -20 -18 -98 -50 -105 -42 -2 2 -22 6 -44 9 -67 10 -153 37 -165
51 -6 8 -18 14 -25 14 -8 0 -14 3 -14 8 0 4 -18 20 -40 36 -22 17 -40 34 -40
39 0 4 -14 28 -30 52 -39 56 -59 184 -40 249 40 140 169 300 286 352 32 15 61
30 64 33 6 8 52 29 63 30 5 1 5 -3 2 -9z m20 -180 c-3 -5 -12 -10 -18 -10 -7
0 -6 4 3 10 19 12 23 12 15 0z m45 -32 c0 -19 -52 -68 -72 -68 -23 0 -24 37
-1 62 18 20 73 25 73 6z m-614 -53 c15 -23 12 -65 -5 -65 -9 0 -30 78 -23 85
8 8 11 6 28 -20z"/>
<path d="M2336 1094 c-3 -8 -1 -24 4 -34 6 -10 10 -41 10 -68 0 -48 0 -49 -30
-44 -37 5 -80 -21 -80 -48 0 -11 -4 -20 -10 -20 -5 0 -10 5 -10 11 0 6 -10 9
-22 7 -22 -3 -23 -6 -21 -101 3 -104 11 -131 42 -140 37 -9 43 6 25 66 -20 64
-37 68 -23 6 11 -48 4 -63 -17 -35 -9 13 -14 47 -14 103 l0 83 28 -6 c22 -4
30 0 44 25 15 27 23 31 57 31 35 0 41 3 47 26 4 14 4 50 0 80 -6 53 -6 54 19
54 18 0 25 -5 25 -20 0 -11 -4 -20 -9 -20 -7 0 -8 -161 -1 -180 6 -16 4 -36
-5 -42 -6 -5 -5 -8 3 -8 6 0 12 -11 12 -25 0 -13 5 -36 12 -50 16 -34 -4 -58
-28 -33 -12 11 -27 14 -57 10 -36 -5 -43 -2 -69 29 -18 22 -26 27 -22 14 18
-55 89 -86 122 -53 9 9 12 7 12 -10 0 -23 15 -27 58 -16 26 7 28 25 7 58 -21
31 -33 179 -23 274 9 84 5 92 -48 92 -20 0 -34 -6 -38 -16z"/>
<path d="M2486 991 c-10 -11 -20 -39 -23 -63 -4 -24 -13 -48 -22 -55 -13 -10
-14 -15 -4 -30 7 -10 21 -36 31 -59 39 -83 129 -114 216 -76 25 12 46 25 46
30 0 5 -22 9 -50 9 -42 -1 -55 4 -80 28 -30 29 -30 30 -11 45 35 28 53 77 42
116 -15 55 -37 74 -86 74 -29 0 -47 -6 -59 -19z m106 -18 c11 -9 18 -30 18
-50 0 -37 -24 -93 -40 -93 -6 0 -10 -8 -10 -19 0 -26 56 -81 83 -81 18 0 19
-2 7 -10 -45 -29 -131 7 -161 68 -9 17 -22 39 -29 47 -10 13 -10 19 2 33 9 9
18 34 21 55 3 22 11 45 18 53 16 19 68 18 91 -3z"/>
<path d="M2530 931 c-15 -28 -12 -58 5 -65 35 -13 63 23 50 64 -8 26 -41 26
-55 1z m36 -36 c-4 -14 -11 -25 -16 -25 -14 0 -12 44 2 58 16 16 22 0 14 -33z"/>
<path d="M2157 984 c-13 -13 -7 -52 9 -58 25 -9 56 12 52 37 -3 22 -45 36 -61
21z m38 -24 c3 -5 -1 -10 -9 -10 -9 0 -16 5 -16 10 0 6 4 10 9 10 6 0 13 -4
16 -10z"/>
<path d="M2007 913 c-4 -3 -7 -19 -7 -34 0 -46 -21 -130 -31 -123 -5 3 -9 29
-9 59 0 62 -16 85 -61 85 -24 0 -29 -4 -29 -25 0 -14 7 -28 15 -31 10 -4 15
-20 16 -48 1 -67 15 -136 31 -153 34 -33 88 20 88 87 0 38 12 39 27 0 20 -53
112 -73 121 -26 2 10 -7 20 -23 26 -29 11 -59 68 -71 135 -4 22 -12 43 -18 47
-14 10 -41 10 -49 1z m53 -77 c11 -55 48 -116 78 -128 12 -4 7 -7 -15 -7 -25
-1 -38 6 -59 34 -35 46 -51 44 -59 -5 -4 -22 -14 -50 -24 -61 -16 -21 -18 -21
-35 -4 -11 11 -16 28 -13 41 2 13 1 21 -3 19 -4 -3 -7 16 -6 41 1 29 -5 56
-16 75 l-18 29 25 0 c22 0 25 -4 26 -37 1 -73 14 -101 42 -90 15 6 20 22 32
105 9 60 31 54 45 -12z"/>
<path d="M826 853 c-4 -32 -11 -86 -17 -121 -10 -56 -8 -103 7 -154 10 -34 74
-19 74 18 0 27 26 44 69 44 42 0 61 -9 61 -30 0 -10 7 -23 15 -30 12 -10 20
-9 40 4 21 14 24 20 15 36 -13 25 -20 26 -13 1 8 -32 -24 -33 -43 -1 -36 60
-147 51 -156 -13 -2 -14 -11 -23 -25 -25 -21 -3 -24 1 -38 75 -2 12 1 37 7 55
10 34 22 198 14 198 -2 0 -7 -26 -10 -57z"/>
<path d="M2294 855 c-21 -32 -12 -69 21 -91 24 -16 27 -15 45 1 26 24 25 69
-2 95 -29 26 -44 25 -64 -5z m53 -7 c19 -24 22 -46 9 -63 -10 -14 -16 -15 -34
-6 -22 12 -28 35 -16 65 7 19 28 21 41 4z"/>
<path d="M1099 640 c28 -24 60 -26 87 -5 18 14 17 14 -13 9 -18 -4 -47 -1 -65
5 l-33 11 24 -20z"/>
</g>
</svg>
